<svg xmlns="http://www.w3.org/2000/svg" xmlns:xlink="http://www.w3.org/1999/xlink" width="40" zoomAndPan="magnify" viewBox="0 0 30 30.000001" height="40" preserveAspectRatio="xMidYMid meet" version="1.0"><defs><g/><clipPath id="e923a3e56b"><path d="M 0.484375 0 L 29.515625 0 L 29.515625 29.03125 L 0.484375 29.03125 Z M 0.484375 0 " clip-rule="nonzero"/></clipPath></defs><g clip-path="url(#e923a3e56b)"><path fill="#ffffff" d="M 0.484375 0 L 29.515625 0 L 29.515625 29.03125 L 0.484375 29.03125 Z M 0.484375 0 " fill-opacity="1" fill-rule="nonzero"/><path fill="#080639" d="M 0.484375 0 L 29.515625 0 L 29.515625 29.03125 L 0.484375 29.03125 Z M 0.484375 0 " fill-opacity="1" fill-rule="nonzero"/></g><g fill="#ffffff" fill-opacity="1"><g transform="translate(1.453503, 19.233873)"><g><path d="M 5.75 -10.84375 C 7.101562 -10.84375 8.15625 -10.519531 8.90625 -9.875 C 9.65625 -9.226562 10.03125 -8.316406 10.03125 -7.140625 C 10.03125 -5.910156 9.65625 -4.957031 8.90625 -4.28125 C 8.15625 -3.601562 7.101562 -3.265625 5.75 -3.265625 L 3.25 -3.265625 L 3.25 0 L 1.421875 0 L 1.421875 -10.84375 Z M 5.671875 -4.90625 C 6.515625 -4.90625 7.160156 -5.085938 7.609375 -5.453125 C 8.054688 -5.828125 8.28125 -6.375 8.28125 -7.09375 C 8.28125 -7.789062 8.054688 -8.316406 7.609375 -8.671875 C 7.160156 -9.023438 6.515625 -9.203125 5.671875 -9.203125 L 3.25 -9.203125 L 3.25 -4.90625 Z M 5.671875 -4.90625 "/></g></g></g><g fill="#ffffff" fill-opacity="1"><g transform="translate(11.871642, 19.233873)"><g><path d="M 5.875 -10.84375 C 6.945312 -10.84375 7.90625 -10.609375 8.75 -10.140625 C 9.601562 -9.679688 10.269531 -9.035156 10.75 -8.203125 C 11.226562 -7.378906 11.46875 -6.453125 11.46875 -5.421875 C 11.46875 -4.390625 11.222656 -3.460938 10.734375 -2.640625 C 10.253906 -1.816406 9.585938 -1.171875 8.734375 -0.703125 C 7.878906 -0.234375 6.910156 0 5.828125 0 L 1.421875 0 L 1.421875 -10.84375 Z M 5.921875 -1.640625 C 6.609375 -1.640625 7.234375 -1.796875 7.796875 -2.109375 C 8.367188 -2.429688 8.816406 -2.878906 9.140625 -3.453125 C 9.460938 -4.023438 9.625 -4.675781 9.625 -5.40625 C 9.625 -6.125 9.457031 -6.769531 9.125 -7.34375 C 8.789062 -7.925781 8.332031 -8.378906 7.75 -8.703125 C 7.175781 -9.035156 6.539062 -9.203125 5.84375 -9.203125 L 3.25 -9.203125 L 3.25 -1.640625 Z M 5.921875 -1.640625 "/></g></g></g><g fill="#ffffff" fill-opacity="1"><g transform="translate(23.868757, 19.233873)"><g><path d="M 1.421875 0 L 1.421875 -10.84375 L 3.25 -10.84375 L 3.25 0 Z M 1.421875 0 "/></g></g></g></svg>